# Blender 4.4.3
# www.blender.org
mtllib table.mtl
o Table_Wood_01
v 0.900000 0.450000 0.690000
v -0.900000 0.450000 0.690000
v -0.900000 -0.450000 0.690000
v 0.900000 -0.450000 0.690000
v 0.900000 0.450000 0.720000
v -0.900000 0.450000 0.720000
v -0.900000 -0.450000 0.720000
v 0.900000 -0.450000 0.720000
v 0.860000 -0.320000 0.000000
v 0.790000 -0.320000 0.000000
v 0.790000 -0.390000 0.000000
v 0.860000 -0.390000 0.000000
v 0.860000 -0.320000 0.615000
v 0.790000 -0.320000 0.615000
v 0.790000 -0.390000 0.615000
v 0.860000 -0.390000 0.615000
v -0.860000 -0.320000 0.000000
v -0.790000 -0.320000 0.000000
v -0.790000 -0.320000 0.615000
v -0.860000 -0.320000 0.615000
v -0.790000 -0.390000 0.000000
v -0.790000 -0.390000 0.615000
v -0.860000 -0.390000 0.000000
v -0.860000 -0.390000 0.615000
v 0.860000 0.320000 -0.000000
v 0.790000 0.320000 -0.000000
v 0.790000 0.320000 0.615000
v 0.860000 0.320000 0.615000
v 0.790000 0.390000 -0.000000
v 0.790000 0.390000 0.615000
v 0.860000 0.390000 -0.000000
v 0.860000 0.390000 0.615000
v -0.790000 0.320000 -0.000000
v -0.860000 0.320000 -0.000000
v -0.790000 0.320000 0.615000
v -0.860000 0.320000 0.615000
v -0.790000 0.390000 -0.000000
v -0.790000 0.390000 0.615000
v -0.860000 0.390000 -0.000000
v -0.860000 0.390000 0.615000
v 0.787500 0.430000 0.690000
v 0.862500 0.430000 0.690000
v 0.862500 0.430000 0.615000
v 0.787500 0.430000 0.615000
v 0.787500 -0.430000 0.690000
v 0.862500 -0.430000 0.690000
v 0.862500 -0.430000 0.615000
v 0.787500 -0.430000 0.615000
v -0.787500 0.430000 0.690000
v -0.787500 -0.430000 0.690000
v -0.862500 -0.430000 0.690000
v -0.862500 0.430000 0.690000
v -0.862500 -0.430000 0.615000
v -0.862500 0.430000 0.615000
v -0.787500 -0.430000 0.615000
v -0.787500 0.430000 0.615000
v 0.787500 -0.317500 0.690000
v 0.787500 -0.392500 0.690000
v 0.787500 -0.392500 0.615000
v 0.787500 -0.317500 0.615000
v -0.787500 -0.317500 0.690000
v -0.787500 -0.392500 0.690000
v -0.787500 -0.392500 0.615000
v -0.787500 -0.317500 0.615000
v 0.787500 0.317500 0.690000
v -0.787500 0.317500 0.690000
v -0.787500 0.392500 0.690000
v 0.787500 0.392500 0.690000
v -0.787500 0.392500 0.615000
v 0.787500 0.392500 0.615000
v -0.787500 0.317500 0.615000
v 0.787500 0.317500 0.615000
v 0.810000 0.320000 0.205000
v 0.840000 0.320000 0.205000
v 0.840000 0.320000 0.155000
v 0.810000 0.320000 0.155000
v 0.810000 -0.320000 0.205000
v 0.840000 -0.320000 0.205000
v 0.840000 -0.320000 0.155000
v 0.810000 -0.320000 0.155000
v -0.810000 0.320000 0.205000
v -0.810000 -0.320000 0.205000
v -0.840000 -0.320000 0.205000
v -0.840000 0.320000 0.205000
v -0.840000 -0.320000 0.155000
v -0.840000 0.320000 0.155000
v -0.810000 -0.320000 0.155000
v -0.810000 0.320000 0.155000
vn -0.0000 1.0000 -0.0000
vn -1.0000 -0.0000 -0.0000
vn -0.0000 -1.0000 -0.0000
vn 1.0000 -0.0000 -0.0000
vn -0.0000 -0.0000 -1.0000
vn -0.0000 -0.0000 1.0000
vt 0.298995 0.835752
vt 0.833329 0.826846
vt 0.833329 0.835752
vt 0.015831 0.835752
vt 0.282998 0.826846
vt 0.282998 0.835752
vt 0.298995 0.810849
vt 0.833329 0.801944
vt 0.833329 0.810849
vt 0.015831 0.810849
vt 0.282998 0.801944
vt 0.282998 0.810849
vt 0.015792 0.299034
vt 0.550126 0.566201
vt 0.015792 0.566201
vt 0.550126 0.015831
vt 0.015792 0.282998
vt 0.015792 0.015831
vt 0.764187 0.410264
vt 0.946751 0.431044
vt 0.764187 0.431044
vt 0.565944 0.410264
vt 0.748509 0.431044
vt 0.565944 0.431044
vt 0.565944 0.446886
vt 0.748509 0.467665
vt 0.565944 0.467665
vt 0.764187 0.446886
vt 0.946751 0.467665
vt 0.764187 0.467665
vt 0.837022 0.129991
vt 0.857802 0.150771
vt 0.837022 0.150771
vt 0.967665 0.091905
vt 0.946886 0.112685
vt 0.946886 0.091905
vt 0.946751 0.337022
vt 0.764187 0.357802
vt 0.764187 0.337022
vt 0.748509 0.337022
vt 0.565944 0.357802
vt 0.565944 0.337022
vt 0.748509 0.373643
vt 0.565944 0.394423
vt 0.565944 0.373643
vt 0.946751 0.373643
vt 0.764187 0.394423
vt 0.764187 0.373643
vt 0.931044 0.091905
vt 0.910264 0.112685
vt 0.910264 0.091905
vt 0.894423 0.150771
vt 0.873643 0.129991
vt 0.894423 0.129991
vt 0.594700 0.734483
vt 0.412136 0.755263
vt 0.412136 0.734483
vt 0.396458 0.734483
vt 0.213894 0.755263
vt 0.213894 0.734483
vt 0.198216 0.734483
vt 0.015652 0.755263
vt 0.015652 0.734483
vt 0.792942 0.734483
vt 0.610378 0.755263
vt 0.610378 0.734483
vt 0.946886 0.150771
vt 0.967665 0.129991
vt 0.967665 0.150771
vt 0.910264 0.129991
vt 0.931044 0.150771
vt 0.910264 0.150771
vt 0.565944 0.483507
vt 0.748509 0.504286
vt 0.565944 0.504286
vt 0.764187 0.483507
vt 0.946751 0.504286
vt 0.764187 0.504286
vt 0.764187 0.520128
vt 0.946751 0.540907
vt 0.764187 0.540907
vt 0.565944 0.520128
vt 0.748509 0.540907
vt 0.565944 0.540907
vt 0.857802 0.112685
vt 0.837022 0.091905
vt 0.857802 0.091905
vt 0.873643 0.112685
vt 0.894423 0.091905
vt 0.894423 0.112685
vt 0.565957 0.228417
vt 0.821250 0.206153
vt 0.821250 0.228417
vt 0.565957 0.190331
vt 0.821250 0.168067
vt 0.821250 0.190331
vt 0.821250 0.298927
vt 0.565957 0.321191
vt 0.565957 0.298927
vt 0.821250 0.129981
vt 0.565957 0.152245
vt 0.565957 0.129981
vt 0.973534 0.015723
vt 0.951270 0.037987
vt 0.951270 0.015723
vt 0.935448 0.037987
vt 0.913184 0.015724
vt 0.935448 0.015724
vt 0.821250 0.266503
vt 0.565957 0.244239
vt 0.821250 0.244239
vt 0.565957 0.015724
vt 0.821250 0.037987
vt 0.565957 0.037987
vt 0.565957 0.053809
vt 0.821250 0.076073
vt 0.565957 0.076073
vt 0.821250 0.114159
vt 0.565957 0.091895
vt 0.821250 0.091895
vt 0.897362 0.037987
vt 0.875099 0.015723
vt 0.897362 0.015723
vt 0.837013 0.037987
vt 0.859276 0.015723
vt 0.859276 0.037987
vt 0.483283 0.582130
vt 0.015741 0.604394
vt 0.015741 0.582130
vt 0.483283 0.696388
vt 0.015741 0.718652
vt 0.015741 0.696388
vt 0.966681 0.658302
vt 0.499139 0.680566
vt 0.499139 0.658302
vt 0.015741 0.680566
vt 0.483283 0.658302
vt 0.483283 0.680566
vt 0.973534 0.053809
vt 0.951270 0.076073
vt 0.951270 0.053809
vt 0.935448 0.076073
vt 0.913184 0.053809
vt 0.935448 0.053809
vt 0.499139 0.696388
vt 0.966681 0.718651
vt 0.499139 0.718651
vt 0.966681 0.642480
vt 0.499139 0.620216
vt 0.966681 0.620216
vt 0.015741 0.620216
vt 0.483283 0.642480
vt 0.015741 0.642480
vt 0.499139 0.582130
vt 0.966681 0.604394
vt 0.499139 0.604394
vt 0.897362 0.076073
vt 0.875099 0.053809
vt 0.897362 0.053809
vt 0.837013 0.076073
vt 0.859276 0.053809
vt 0.859276 0.076073
vt 0.411887 0.851748
vt 0.221902 0.860654
vt 0.221902 0.851748
vt 0.221902 0.785986
vt 0.411887 0.771143
vt 0.411887 0.785986
vt 0.015847 0.860654
vt 0.205833 0.851748
vt 0.205833 0.860654
vt 0.617942 0.771143
vt 0.427956 0.785986
vt 0.427956 0.771143
vt 0.929346 0.168155
vt 0.944189 0.177060
vt 0.929346 0.177060
vt 0.851904 0.168155
vt 0.837061 0.177060
vt 0.837061 0.168155
vt 0.772195 0.556827
vt 0.962180 0.565732
vt 0.772195 0.565732
vt 0.015847 0.771143
vt 0.205833 0.785986
vt 0.015847 0.785986
vt 0.756126 0.565732
vt 0.566140 0.556826
vt 0.756126 0.556826
vt 0.823997 0.785986
vt 0.634011 0.771143
vt 0.823997 0.771143
vt 0.882665 0.168155
vt 0.867823 0.177060
vt 0.867823 0.168155
vt 0.913427 0.177060
vt 0.898585 0.168155
vt 0.913427 0.168155
vt 0.298995 0.826846
vt 0.015831 0.826846
vt 0.298995 0.801944
vt 0.015831 0.801944
vt 0.550126 0.299034
vt 0.550126 0.282998
vt 0.946751 0.410264
vt 0.748509 0.410264
vt 0.748509 0.446886
vt 0.946751 0.446886
vt 0.857802 0.129991
vt 0.967665 0.112685
vt 0.946751 0.357802
vt 0.748509 0.357802
vt 0.748509 0.394423
vt 0.946751 0.394423
vt 0.931044 0.112685
vt 0.873643 0.150771
vt 0.594700 0.755263
vt 0.396458 0.755263
vt 0.198216 0.755263
vt 0.792942 0.755263
vt 0.946886 0.129991
vt 0.931044 0.129991
vt 0.748509 0.483507
vt 0.946751 0.483507
vt 0.946751 0.520128
vt 0.748509 0.520128
vt 0.837022 0.112685
vt 0.873643 0.091905
vt 0.565957 0.206153
vt 0.565957 0.168067
vt 0.821250 0.321191
vt 0.821250 0.152245
vt 0.973534 0.037987
vt 0.913184 0.037987
vt 0.565957 0.266503
vt 0.821250 0.015723
vt 0.821250 0.053809
vt 0.565957 0.114159
vt 0.875099 0.037987
vt 0.837013 0.015723
vt 0.483283 0.604394
vt 0.483283 0.718651
vt 0.966681 0.680566
vt 0.015741 0.658302
vt 0.973534 0.076073
vt 0.913184 0.076073
vt 0.966681 0.696388
vt 0.499139 0.642480
vt 0.483283 0.620216
vt 0.966681 0.582130
vt 0.875099 0.076073
vt 0.837013 0.053809
vt 0.411887 0.860654
vt 0.221902 0.771143
vt 0.015847 0.851748
vt 0.617942 0.785986
vt 0.944189 0.168155
vt 0.851904 0.177060
vt 0.962180 0.556827
vt 0.205833 0.771143
vt 0.566140 0.565732
vt 0.634011 0.785986
vt 0.882665 0.177060
vt 0.898585 0.177060
s 1
usemtl Table_Wood_01
f 2/1/1 5/2/1 1/3/1
f 3/4/2 6/5/2 2/6/2
f 4/7/3 7/8/3 3/9/3
f 1/10/4 8/11/4 4/12/4
f 2/13/5 4/14/5 3/15/5
f 8/16/6 6/17/6 7/18/6
f 10/19/1 13/20/1 9/21/1
f 11/22/2 14/23/2 10/24/2
f 12/25/3 15/26/3 11/27/3
f 9/28/4 16/29/4 12/30/4
f 10/31/5 12/32/5 11/33/5
f 16/34/6 14/35/6 15/36/6
f 20/37/1 18/38/1 17/39/1
f 19/40/4 21/41/4 18/42/4
f 22/43/3 23/44/3 21/45/3
f 24/46/2 17/47/2 23/48/2
f 18/49/5 23/50/5 17/51/5
f 19/52/6 24/53/6 22/54/6
f 28/55/3 26/56/3 25/57/3
f 27/58/2 29/59/2 26/60/2
f 30/61/1 31/62/1 29/63/1
f 32/64/4 25/65/4 31/66/4
f 26/67/5 31/68/5 25/69/5
f 27/70/6 32/71/6 30/72/6
f 33/73/3 36/74/3 34/75/3
f 37/76/4 35/77/4 33/78/4
f 39/79/1 38/80/1 37/81/1
f 34/82/2 40/83/2 39/84/2
f 33/85/5 39/86/5 37/87/5
f 40/88/6 35/89/6 38/90/6
f 45/91/6 42/92/6 41/93/6
f 46/94/4 43/95/4 42/96/4
f 47/97/5 44/98/5 43/99/5
f 48/100/2 41/101/2 44/102/2
f 44/103/1 42/104/1 43/105/1
f 46/106/3 48/107/3 47/108/3
f 52/109/6 50/110/6 49/111/6
f 54/112/2 51/113/2 52/114/2
f 56/115/5 53/116/5 54/117/5
f 49/118/4 55/119/4 56/120/4
f 52/121/1 56/122/1 54/123/1
f 51/124/3 55/125/3 50/126/3
f 61/127/6 58/128/6 57/129/6
f 62/130/3 59/131/3 58/132/3
f 63/133/5 60/134/5 59/135/5
f 64/136/1 57/137/1 60/138/1
f 60/139/4 58/140/4 59/141/4
f 62/142/2 64/143/2 63/144/2
f 68/145/6 66/146/6 65/147/6
f 70/148/1 67/149/1 68/150/1
f 72/151/5 69/152/5 70/153/5
f 65/154/3 71/155/3 72/156/3
f 68/157/4 72/158/4 70/159/4
f 67/160/2 71/161/2 66/162/2
f 77/163/6 74/164/6 73/165/6
f 78/166/4 75/167/4 74/168/4
f 79/169/5 76/170/5 75/171/5
f 80/172/2 73/173/2 76/174/2
f 76/175/1 74/176/1 75/177/1
f 78/178/3 80/179/3 79/180/3
f 84/181/6 82/182/6 81/183/6
f 86/184/2 83/185/2 84/186/2
f 88/187/5 85/188/5 86/189/5
f 81/190/4 87/191/4 88/192/4
f 84/193/1 88/194/1 86/195/1
f 83/196/3 87/197/3 82/198/3
f 2/1/1 6/199/1 5/2/1
f 3/4/2 7/200/2 6/5/2
f 4/7/3 8/201/3 7/8/3
f 1/10/4 5/202/4 8/11/4
f 2/13/5 1/203/5 4/14/5
f 8/16/6 5/204/6 6/17/6
f 10/19/1 14/205/1 13/20/1
f 11/22/2 15/206/2 14/23/2
f 12/25/3 16/207/3 15/26/3
f 9/28/4 13/208/4 16/29/4
f 10/31/5 9/209/5 12/32/5
f 16/34/6 13/210/6 14/35/6
f 20/37/1 19/211/1 18/38/1
f 19/40/4 22/212/4 21/41/4
f 22/43/3 24/213/3 23/44/3
f 24/46/2 20/214/2 17/47/2
f 18/49/5 21/215/5 23/50/5
f 19/52/6 20/216/6 24/53/6
f 28/55/3 27/217/3 26/56/3
f 27/58/2 30/218/2 29/59/2
f 30/61/1 32/219/1 31/62/1
f 32/64/4 28/220/4 25/65/4
f 26/67/5 29/221/5 31/68/5
f 27/70/6 28/222/6 32/71/6
f 33/73/3 35/223/3 36/74/3
f 37/76/4 38/224/4 35/77/4
f 39/79/1 40/225/1 38/80/1
f 34/82/2 36/226/2 40/83/2
f 33/85/5 34/227/5 39/86/5
f 40/88/6 36/228/6 35/89/6
f 45/91/6 46/229/6 42/92/6
f 46/94/4 47/230/4 43/95/4
f 47/97/5 48/231/5 44/98/5
f 48/100/2 45/232/2 41/101/2
f 44/103/1 41/233/1 42/104/1
f 46/106/3 45/234/3 48/107/3
f 52/109/6 51/235/6 50/110/6
f 54/112/2 53/236/2 51/113/2
f 56/115/5 55/237/5 53/116/5
f 49/118/4 50/238/4 55/119/4
f 52/121/1 49/239/1 56/122/1
f 51/124/3 53/240/3 55/125/3
f 61/127/6 62/241/6 58/128/6
f 62/130/3 63/242/3 59/131/3
f 63/133/5 64/243/5 60/134/5
f 64/136/1 61/244/1 57/137/1
f 60/139/4 57/245/4 58/140/4
f 62/142/2 61/246/2 64/143/2
f 68/145/6 67/247/6 66/146/6
f 70/148/1 69/248/1 67/149/1
f 72/151/5 71/249/5 69/152/5
f 65/154/3 66/250/3 71/155/3
f 68/157/4 65/251/4 72/158/4
f 67/160/2 69/252/2 71/161/2
f 77/163/6 78/253/6 74/164/6
f 78/166/4 79/254/4 75/167/4
f 79/169/5 80/255/5 76/170/5
f 80/172/2 77/256/2 73/173/2
f 76/175/1 73/257/1 74/176/1
f 78/178/3 77/258/3 80/179/3
f 84/181/6 83/259/6 82/182/6
f 86/184/2 85/260/2 83/185/2
f 88/187/5 87/261/5 85/188/5
f 81/190/4 82/262/4 87/191/4
f 84/193/1 81/263/1 88/194/1
f 83/196/3 85/264/3 87/197/3
